<svg width="100" height="130" viewBox="0 0 100 130" fill="none" xmlns="http://www.w3.org/2000/svg">
<path d="M45.4167 27.0833C46.2407 27.0878 47.0452 27.4098 47.7285 28.0087C48.4118 28.6076 48.9431 29.4564 49.2553 30.4478C49.5675 31.4392 49.6465 32.5288 49.4824 33.5786C49.3183 34.6284 48.9184 35.5914 48.3333 36.3458L29.1667 61.1541C28.7761 61.6577 28.4662 62.2567 28.2546 62.9168C28.0431 63.5769 27.9342 64.2849 27.9342 64.9999C27.9342 65.715 28.0431 66.423 28.2546 67.0831C28.4662 67.7431 28.7761 68.3422 29.1667 68.8458L48.3333 93.6541C48.7239 94.1577 49.0339 94.7567 49.2454 95.4168C49.4569 96.0769 49.5658 96.7849 49.5658 97.4999C49.5658 98.215 49.4569 98.923 49.2454 99.5831C49.0339 100.243 48.7239 100.842 48.3333 101.346C47.5527 102.355 46.4966 102.921 45.3958 102.921C44.2951 102.921 43.239 102.355 42.4583 101.346L23.3333 76.4833C20.9925 73.4364 19.6777 69.3062 19.6777 64.9999C19.6777 60.6937 20.9925 56.5635 23.3333 53.5166L42.4583 28.6541C42.8477 28.1521 43.3094 27.7549 43.8171 27.4853C44.3247 27.2158 44.8683 27.0791 45.4167 27.0833Z" fill="#E7E7E7"/>
<path d="M74.5833 27.0833C75.4074 27.0878 76.2119 27.4098 76.8952 28.0087C77.5784 28.6076 78.1098 29.4564 78.422 30.4478C78.7341 31.4392 78.8132 32.5288 78.6491 33.5786C78.485 34.6284 78.0851 35.5914 77.5 36.3458L55.4583 64.9999L77.5 93.6541C77.8905 94.1577 78.2005 94.7567 78.4121 95.4168C78.6236 96.0769 78.7325 96.7849 78.7325 97.4999C78.7325 98.215 78.6236 98.923 78.4121 99.5831C78.2005 100.243 77.8905 100.842 77.5 101.346C76.7193 102.355 75.6633 102.921 74.5625 102.921C73.4617 102.921 72.4057 102.355 71.625 101.346L46.625 68.8458C46.2345 68.3422 45.9245 67.7431 45.713 67.0831C45.5014 66.423 45.3925 65.715 45.3925 64.9999C45.3925 64.2849 45.5014 63.5769 45.713 62.9168C45.9245 62.2567 46.2345 61.6577 46.625 61.1541L71.625 28.6541C72.0143 28.1521 72.4761 27.7549 72.9837 27.4853C73.4914 27.2158 74.035 27.0791 74.5833 27.0833Z" fill="#E7E7E7"/>
</svg>
