<svg width="100" height="130" viewBox="0 0 100 130" fill="none" xmlns="http://www.w3.org/2000/svg">
<path d="M54.5833 102.917C53.7592 102.912 52.9547 102.59 52.2714 101.991C51.5882 101.392 51.0569 100.544 50.7447 99.5522C50.4325 98.5608 50.3534 97.4712 50.5175 96.4214C50.6816 95.3716 51.0815 94.4086 51.6666 93.6542L70.8333 68.8459C71.2238 68.3423 71.5338 67.7433 71.7453 67.0832C71.9569 66.4231 72.0658 65.7151 72.0658 65.0001C72.0658 64.285 71.9569 63.577 71.7453 62.9169C71.5338 62.2569 71.2238 61.6578 70.8333 61.1542L51.6666 36.3459C51.2761 35.8423 50.9661 35.2433 50.7546 34.5832C50.543 33.9231 50.4341 33.2151 50.4341 32.5001C50.4341 31.785 50.543 31.077 50.7546 30.4169C50.9661 29.7569 51.2761 29.1578 51.6666 28.6542C52.4473 27.6454 53.5033 27.0791 54.6041 27.0791C55.7049 27.0791 56.7609 27.6454 57.5416 28.6542L76.6666 53.5167C79.0075 56.5636 80.3223 60.6938 80.3223 65.0001C80.3223 69.3063 79.0075 73.4365 76.6666 76.4834L57.5416 101.346C57.1523 101.848 56.6905 102.245 56.1829 102.515C55.6752 102.784 55.1316 102.921 54.5833 102.917Z" fill="#E6E6E6"/>
<path d="M25.4167 102.917C24.5926 102.912 23.7881 102.59 23.1048 101.991C22.4215 101.392 21.8902 100.544 21.578 99.5522C21.2658 98.5608 21.1868 97.4712 21.3509 96.4214C21.515 95.3716 21.9149 94.4086 22.5 93.6542L44.5416 65.0001L22.5 36.3459C22.1095 35.8423 21.7995 35.2433 21.5879 34.5832C21.3764 33.9231 21.2675 33.2151 21.2675 32.5001C21.2675 31.785 21.3764 31.077 21.5879 30.4169C21.7995 29.7569 22.1095 29.1578 22.5 28.6542C23.2807 27.6454 24.3367 27.0791 25.4375 27.0791C26.5383 27.0791 27.5943 27.6454 28.375 28.6542L53.375 61.1542C53.7655 61.6578 54.0755 62.2569 54.287 62.9169C54.4986 63.577 54.6075 64.285 54.6075 65.0001C54.6075 65.7151 54.4986 66.4231 54.287 67.0832C54.0755 67.7433 53.7655 68.3423 53.375 68.8459L28.375 101.346C27.9857 101.848 27.5239 102.245 27.0163 102.515C26.5086 102.784 25.965 102.921 25.4167 102.917Z" fill="#E6E6E6"/>
</svg>
