<svg width="22" height="22" viewBox="0 0 22 22" fill="none" xmlns="http://www.w3.org/2000/svg">
<path d="M17.7125 2.91524L17.7129 2.91559C18.8167 3.83122 19.722 4.96214 20.3733 6.23917C21.0222 7.51144 21.4055 8.90212 21.5 10.3268V10.3681V17.4167C21.4987 18.4991 21.0677 19.5369 20.3015 20.3024C19.5352 21.068 18.4962 21.4987 17.4123 21.5H11.0074C11.0074 21.5 11.0074 21.5 11.0074 21.5C8.33763 21.4995 5.76821 20.4841 3.8208 18.6599C1.87338 16.8356 0.693964 14.3395 0.521876 11.6783C0.349788 9.01702 1.19792 6.39004 2.89417 4.33071C4.59043 2.27137 7.0077 0.934038 9.65521 0.590426L9.6564 0.590268C11.0872 0.401082 12.5416 0.510001 13.9281 0.910156C15.3147 1.31031 16.6032 1.99302 17.7125 2.91524ZM10.9909 5.91874H7.32114C6.94537 5.91874 6.58489 6.06787 6.31903 6.33347C6.05316 6.59908 5.90371 6.95944 5.90371 7.33529C5.90371 7.71113 6.05316 8.07149 6.31903 8.3371C6.58489 8.6027 6.94537 8.75183 7.32114 8.75183H10.9909C11.3666 8.75183 11.7271 8.6027 11.993 8.3371C12.2588 8.07149 12.4083 7.71113 12.4083 7.33529C12.4083 6.95944 12.2588 6.59908 11.993 6.33347C11.7271 6.06787 11.3666 5.91874 10.9909 5.91874ZM7.32114 16.0842H14.6606C15.0363 16.0842 15.3968 15.9351 15.6627 15.6695C15.9285 15.4038 16.078 15.0435 16.078 14.6676C16.078 14.2918 15.9285 13.9314 15.6627 13.6658C15.3968 13.4002 15.0363 13.2511 14.6606 13.2511H7.32114C6.94537 13.2511 6.58489 13.4002 6.31903 13.6658C6.05316 13.9314 5.90371 14.2918 5.90371 14.6676C5.90371 15.0435 6.05316 15.4038 6.31903 15.6695C6.58489 15.9351 6.94537 16.0842 7.32114 16.0842ZM7.32114 12.418H14.6606C15.0363 12.418 15.3968 12.2689 15.6627 12.0033C15.9285 11.7377 16.078 11.3773 16.078 11.0015C16.078 10.6256 15.9285 10.2653 15.6627 9.99965C15.3968 9.73405 15.0363 9.58492 14.6606 9.58492H7.32114C6.94537 9.58492 6.58489 9.73405 6.31903 9.99965C6.05316 10.2653 5.90371 10.6256 5.90371 11.0015C5.90371 11.3773 6.05316 11.7377 6.31903 12.0033C6.58489 12.2689 6.94537 12.418 7.32114 12.418Z" fill="#343558" stroke="black"/>
</svg>
