<svg width="23" height="22" viewBox="0 0 23 22" fill="none" xmlns="http://www.w3.org/2000/svg">
<path d="M11.0625 4.24154L11.5 5.03193L11.9375 4.24154C12.4175 3.37424 13.1179 2.64897 13.9679 2.13896C14.8137 1.63148 15.7779 1.35502 16.7639 1.3371C18.3467 1.40976 19.8372 2.10387 20.9114 3.26906C21.9891 4.43787 22.5603 5.98567 22.5004 7.57431L22.5 7.58373V7.59316C22.5 9.60739 21.433 11.7778 19.828 13.886C18.2321 15.9824 16.1547 17.9518 14.2453 19.5534L14.245 19.5537C13.4762 20.1998 12.5042 20.5539 11.5 20.5539C10.4958 20.5539 9.52379 20.1998 8.75501 19.5537L8.75466 19.5534C6.8453 17.9518 4.76794 15.9824 3.17197 13.886C1.56699 11.7778 0.500001 9.60739 0.500001 7.59316V7.58373L0.499645 7.57431C0.439699 5.98567 1.01094 4.43787 2.08856 3.26906C3.16285 2.10387 4.65333 1.40976 6.23612 1.3371C7.22215 1.35502 8.1863 1.63148 9.0321 2.13896C9.88212 2.64897 10.5825 3.37424 11.0625 4.24154Z" fill="#F6A0A0" stroke="black"/>
</svg>
