<svg width="50" height="50" viewBox="0 0 50 50" fill="none" xmlns="http://www.w3.org/2000/svg">
<g filter="url(#filter0_iii_444_21)">
<path d="M29.0703 5.8501L32.5125 13.0688C33.0438 14.1407 34.0172 14.8954 35.1453 15.0626L42.8453 16.1501C46.8109 16.7376 48.3078 20.9954 45.2313 24.097L39.8359 29.6626C39.3977 30.1053 39.0722 30.6467 38.8868 31.2414C38.7014 31.836 38.6614 32.4665 38.7703 33.0798L39.9828 40.9907C40.6719 45.0938 37.2172 48.0063 33.7203 46.1313L26.6328 42.361C26.1501 42.1049 25.612 41.971 25.0656 41.971C24.5192 41.971 23.9811 42.1049 23.4984 42.361L16.4109 46.1298C12.9141 47.9892 9.24531 45.1657 10.2703 40.8938L11.4672 33.1548C11.5761 32.5415 11.5361 31.911 11.3507 31.3164C11.1653 30.7217 10.8398 30.1803 10.4016 29.7376L4.9 23.9751C1.79844 20.911 3.32031 16.7376 7.28594 16.1517L14.7031 15.0626C15.8328 14.8954 17.1281 14.1579 17.6453 13.0688L21.1578 5.8501C22.9453 2.21729 27.2984 2.21729 29.0719 5.8501" fill="url(#paint0_radial_444_21)"/>
<path d="M29.0703 5.8501L32.5125 13.0688C33.0438 14.1407 34.0172 14.8954 35.1453 15.0626L42.8453 16.1501C46.8109 16.7376 48.3078 20.9954 45.2313 24.097L39.8359 29.6626C39.3977 30.1053 39.0722 30.6467 38.8868 31.2414C38.7014 31.836 38.6614 32.4665 38.7703 33.0798L39.9828 40.9907C40.6719 45.0938 37.2172 48.0063 33.7203 46.1313L26.6328 42.361C26.1501 42.1049 25.612 41.971 25.0656 41.971C24.5192 41.971 23.9811 42.1049 23.4984 42.361L16.4109 46.1298C12.9141 47.9892 9.24531 45.1657 10.2703 40.8938L11.4672 33.1548C11.5761 32.5415 11.5361 31.911 11.3507 31.3164C11.1653 30.7217 10.8398 30.1803 10.4016 29.7376L4.9 23.9751C1.79844 20.911 3.32031 16.7376 7.28594 16.1517L14.7031 15.0626C15.8328 14.8954 17.1281 14.1579 17.6453 13.0688L21.1578 5.8501C22.9453 2.21729 27.2984 2.21729 29.0719 5.8501" fill="url(#paint1_radial_444_21)"/>
</g>
<path d="M29.0703 5.8501L32.5125 13.0688C33.0438 14.1407 34.0172 14.8954 35.1453 15.0626L42.8453 16.1501C46.8109 16.7376 48.3078 20.9954 45.2313 24.097L39.8359 29.6626C39.3977 30.1053 39.0722 30.6467 38.8868 31.2414C38.7014 31.836 38.6614 32.4665 38.7703 33.0798L39.9828 40.9907C40.6719 45.0938 37.2172 48.0063 33.7203 46.1313L26.6328 42.361C26.1501 42.1049 25.612 41.971 25.0656 41.971C24.5192 41.971 23.9811 42.1049 23.4984 42.361L16.4109 46.1298C12.9141 47.9892 9.24531 45.1657 10.2703 40.8938L11.4672 33.1548C11.5761 32.5415 11.5361 31.911 11.3507 31.3164C11.1653 30.7217 10.8398 30.1803 10.4016 29.7376L4.9 23.9751C1.79844 20.911 3.32031 16.7376 7.28594 16.1517L14.7031 15.0626C15.8328 14.8954 17.1281 14.1579 17.6453 13.0688L21.1578 5.8501C22.9453 2.21729 27.2984 2.21729 29.0719 5.8501" fill="url(#paint2_radial_444_21)"/>
<path d="M29.0703 5.8501L32.5125 13.0688C33.0438 14.1407 34.0172 14.8954 35.1453 15.0626L42.8453 16.1501C46.8109 16.7376 48.3078 20.9954 45.2313 24.097L39.8359 29.6626C39.3977 30.1053 39.0722 30.6467 38.8868 31.2414C38.7014 31.836 38.6614 32.4665 38.7703 33.0798L39.9828 40.9907C40.6719 45.0938 37.2172 48.0063 33.7203 46.1313L26.6328 42.361C26.1501 42.1049 25.612 41.971 25.0656 41.971C24.5192 41.971 23.9811 42.1049 23.4984 42.361L16.4109 46.1298C12.9141 47.9892 9.24531 45.1657 10.2703 40.8938L11.4672 33.1548C11.5761 32.5415 11.5361 31.911 11.3507 31.3164C11.1653 30.7217 10.8398 30.1803 10.4016 29.7376L4.9 23.9751C1.79844 20.911 3.32031 16.7376 7.28594 16.1517L14.7031 15.0626C15.8328 14.8954 17.1281 14.1579 17.6453 13.0688L21.1578 5.8501C22.9453 2.21729 27.2984 2.21729 29.0719 5.8501" fill="url(#paint3_radial_444_21)"/>
<path d="M29.0703 5.8501L32.5125 13.0688C33.0438 14.1407 34.0172 14.8954 35.1453 15.0626L42.8453 16.1501C46.8109 16.7376 48.3078 20.9954 45.2313 24.097L39.8359 29.6626C39.3977 30.1053 39.0722 30.6467 38.8868 31.2414C38.7014 31.836 38.6614 32.4665 38.7703 33.0798L39.9828 40.9907C40.6719 45.0938 37.2172 48.0063 33.7203 46.1313L26.6328 42.361C26.1501 42.1049 25.612 41.971 25.0656 41.971C24.5192 41.971 23.9811 42.1049 23.4984 42.361L16.4109 46.1298C12.9141 47.9892 9.24531 45.1657 10.2703 40.8938L11.4672 33.1548C11.5761 32.5415 11.5361 31.911 11.3507 31.3164C11.1653 30.7217 10.8398 30.1803 10.4016 29.7376L4.9 23.9751C1.79844 20.911 3.32031 16.7376 7.28594 16.1517L14.7031 15.0626C15.8328 14.8954 17.1281 14.1579 17.6453 13.0688L21.1578 5.8501C22.9453 2.21729 27.2984 2.21729 29.0719 5.8501" fill="url(#paint4_radial_444_21)"/>
<path d="M29.0703 5.8501L32.5125 13.0688C33.0438 14.1407 34.0172 14.8954 35.1453 15.0626L42.8453 16.1501C46.8109 16.7376 48.3078 20.9954 45.2313 24.097L39.8359 29.6626C39.3977 30.1053 39.0722 30.6467 38.8868 31.2414C38.7014 31.836 38.6614 32.4665 38.7703 33.0798L39.9828 40.9907C40.6719 45.0938 37.2172 48.0063 33.7203 46.1313L26.6328 42.361C26.1501 42.1049 25.612 41.971 25.0656 41.971C24.5192 41.971 23.9811 42.1049 23.4984 42.361L16.4109 46.1298C12.9141 47.9892 9.24531 45.1657 10.2703 40.8938L11.4672 33.1548C11.5761 32.5415 11.5361 31.911 11.3507 31.3164C11.1653 30.7217 10.8398 30.1803 10.4016 29.7376L4.9 23.9751C1.79844 20.911 3.32031 16.7376 7.28594 16.1517L14.7031 15.0626C15.8328 14.8954 17.1281 14.1579 17.6453 13.0688L21.1578 5.8501C22.9453 2.21729 27.2984 2.21729 29.0719 5.8501" fill="url(#paint5_radial_444_21)"/>
<defs>
<filter id="filter0_iii_444_21" x="2.62061" y="2.87549" width="45.004" height="44.4622" filterUnits="userSpaceOnUse" color-interpolation-filters="sRGB">
<feFlood flood-opacity="0" result="BackgroundImageFix"/>
<feBlend mode="normal" in="SourceGraphic" in2="BackgroundImageFix" result="shape"/>
<feColorMatrix in="SourceAlpha" type="matrix" values="0 0 0 0 0 0 0 0 0 0 0 0 0 0 0 0 0 0 127 0" result="hardAlpha"/>
<feOffset dy="-0.25"/>
<feGaussianBlur stdDeviation="0.75"/>
<feComposite in2="hardAlpha" operator="arithmetic" k2="-1" k3="1"/>
<feColorMatrix type="matrix" values="0 0 0 0 0.772549 0 0 0 0 0.494118 0 0 0 0 0.282353 0 0 0 1 0"/>
<feBlend mode="normal" in2="shape" result="effect1_innerShadow_444_21"/>
<feColorMatrix in="SourceAlpha" type="matrix" values="0 0 0 0 0 0 0 0 0 0 0 0 0 0 0 0 0 0 127 0" result="hardAlpha"/>
<feOffset dx="-0.625" dy="0.625"/>
<feGaussianBlur stdDeviation="0.375"/>
<feComposite in2="hardAlpha" operator="arithmetic" k2="-1" k3="1"/>
<feColorMatrix type="matrix" values="0 0 0 0 1 0 0 0 0 0.952941 0 0 0 0 0.286275 0 0 0 1 0"/>
<feBlend mode="normal" in2="effect1_innerShadow_444_21" result="effect2_innerShadow_444_21"/>
<feColorMatrix in="SourceAlpha" type="matrix" values="0 0 0 0 0 0 0 0 0 0 0 0 0 0 0 0 0 0 127 0" result="hardAlpha"/>
<feOffset dx="0.75" dy="-0.25"/>
<feGaussianBlur stdDeviation="0.375"/>
<feComposite in2="hardAlpha" operator="arithmetic" k2="-1" k3="1"/>
<feColorMatrix type="matrix" values="0 0 0 0 0.698039 0 0 0 0 0.537255 0 0 0 0 0.192157 0 0 0 1 0"/>
<feBlend mode="normal" in2="effect2_innerShadow_444_21" result="effect3_innerShadow_444_21"/>
</filter>
<radialGradient id="paint0_radial_444_21" cx="0" cy="0" r="1" gradientUnits="userSpaceOnUse" gradientTransform="translate(38.3464 14.0148) rotate(132.939) scale(31.2192 30.8955)">
<stop stop-color="#FAC632"/>
<stop offset="1" stop-color="#F7C632"/>
</radialGradient>
<radialGradient id="paint1_radial_444_21" cx="0" cy="0" r="1" gradientUnits="userSpaceOnUse" gradientTransform="translate(25.0609 24.9188) rotate(90) scale(21.7934 21.8147)">
<stop stop-color="#DDBA38"/>
<stop offset="1" stop-color="#DDBA38" stop-opacity="0"/>
</radialGradient>
<radialGradient id="paint2_radial_444_21" cx="0" cy="0" r="1" gradientUnits="userSpaceOnUse" gradientTransform="translate(11.0312 15.7532) rotate(74.0547) scale(3.5393 11.8116)">
<stop stop-color="#DDBA38"/>
<stop offset="1" stop-color="#DDBA38" stop-opacity="0"/>
</radialGradient>
<radialGradient id="paint3_radial_444_21" cx="0" cy="0" r="1" gradientUnits="userSpaceOnUse" gradientTransform="translate(3.24531 18.0001) rotate(16.0829) scale(6.14222 6.14822)">
<stop stop-color="#B5953A"/>
<stop offset="1" stop-color="#B5953A" stop-opacity="0"/>
</radialGradient>
<radialGradient id="paint4_radial_444_21" cx="0" cy="0" r="1" gradientUnits="userSpaceOnUse" gradientTransform="translate(13.8875 48.1423) rotate(-58.4961) scale(4.41911 4.42342)">
<stop stop-color="#C47E42"/>
<stop offset="1" stop-color="#C47E42" stop-opacity="0"/>
</radialGradient>
<radialGradient id="paint5_radial_444_21" cx="0" cy="0" r="1" gradientUnits="userSpaceOnUse" gradientTransform="translate(48.5262 18.2441) rotate(150.751) scale(3.4825 4.57908)">
<stop stop-color="#FFF246"/>
<stop offset="1" stop-color="#FFF246" stop-opacity="0"/>
</radialGradient>
</defs>
</svg>
